<?xml version="1.0" encoding="UTF-8" standalone="no"?>
<svg
   height="24px"
   viewBox="0 -960 960 960"
   width="24px"
   fill="#5f6368"
   version="1.1"
   id="svg1"
   sodipodi:docname="check.svg"
   inkscape:version="1.3.2 (091e20ef0f, 2023-11-25)"
   xmlns:inkscape="http://www.inkscape.org/namespaces/inkscape"
   xmlns:sodipodi="http://sodipodi.sourceforge.net/DTD/sodipodi-0.dtd"
   xmlns="http://www.w3.org/2000/svg"
   xmlns:svg="http://www.w3.org/2000/svg">
  <defs
     id="defs1" />
  <sodipodi:namedview
     id="namedview1"
     pagecolor="#ffffff"
     bordercolor="#000000"
     borderopacity="0.25"
     inkscape:showpageshadow="2"
     inkscape:pageopacity="0.0"
     inkscape:pagecheckerboard="0"
     inkscape:deskcolor="#d1d1d1"
     inkscape:zoom="25.166667"
     inkscape:cx="12.019867"
     inkscape:cy="12"
     inkscape:window-width="1463"
     inkscape:window-height="850"
     inkscape:window-x="0"
     inkscape:window-y="0"
     inkscape:window-maximized="1"
     inkscape:current-layer="svg1" />
  <path
     d="m 432.78689,-448.52459 -65.19907,-64.07494 q -12.36534,-12.36534 -30.91335,-12.36534 -18.54801,0 -32.03747,13.48946 -12.36534,12.36534 -12.36534,31.47541 0,19.11007 12.36534,31.47541 l 96.67448,96.67447 q 13.48946,13.48946 31.47541,13.48946 17.98594,0 31.47541,-13.48946 l 191.1007,-191.1007 q 13.48946,-13.48946 12.9274,-31.47541 -0.56206,-17.98595 -12.9274,-31.47541 -13.48946,-13.48946 -32.03747,-14.05152 -18.54801,-0.56206 -32.03747,12.9274 z M 306.88525,-41.592506 241.68618,-151.75644 118.03279,-178.73536 q -16.86183,-3.37237 -26.978926,-17.42389 -10.117096,-14.05152 -7.868852,-30.91335 L 95.550351,-354.09836 11.241218,-450.77283 Q 0,-463.13817 0,-480 0,-496.86183 11.241218,-509.22717 L 95.550351,-605.90164 83.185012,-732.9274 q -2.248244,-16.86183 7.868852,-30.91335 10.117096,-14.05152 26.978926,-17.42389 l 123.65339,-26.97892 65.19907,-110.16393 q 8.99297,-14.61359 24.73068,-19.67214 15.7377,-5.05854 31.4754,1.68619 L 480,-886.93208 596.90867,-936.39344 q 15.7377,-6.74473 31.4754,-1.68619 15.73771,5.05855 24.73068,19.67214 l 65.19907,110.16393 123.65339,26.97892 q 16.86183,3.37237 26.97893,17.42389 10.11709,14.05152 7.86885,30.91335 l -12.36534,127.02576 84.30913,96.67447 Q 960,-496.86183 960,-480 q 0,16.86183 -11.24122,29.22717 l -84.30913,96.67447 12.36534,127.02576 q 2.24824,16.86183 -7.86885,30.91335 -10.1171,14.05152 -26.97893,17.42389 l -123.65339,26.97892 -65.19907,110.163934 q -8.99297,14.613583 -24.73068,19.672131 -15.7377,5.058548 -31.4754,-1.686182 L 480,-73.067916 363.09133,-23.606557 q -15.7377,6.74473 -31.4754,1.686182 -15.73771,-5.058548 -24.73068,-19.672131 z M 365.33958,-122.52927 480,-171.99063 l 116.90867,49.46136 62.95081,-107.91569 123.6534,-29.22717 L 772.27166,-385.57377 855.45667,-480 772.27166,-576.67447 783.51288,-702.57611 659.85948,-729.55504 594.66042,-837.47073 480,-788.00937 l -116.90867,-49.46136 -62.95081,107.91569 -123.6534,26.97893 11.24122,125.90164 -83.18501,96.67447 83.18501,94.42623 -11.24122,128.14988 123.6534,26.97893 z M 480,-480 Z"
     id="path1"
     style="fill:#000000;stroke-width:1.12412" />
</svg>
